<svg width="16" height="16" viewBox="0 0 16 16" fill="none" xmlns="http://www.w3.org/2000/svg">
<rect width="16" height="16" fill="white"/>
<path d="M10.7132 6.01307C10.5377 5.79605 9.56474 4.94954 9.86235 4.64143C10.0409 4.63469 10.2823 5.07945 10.4263 5.21105C10.6306 5.39777 10.8467 5.5589 11.0582 5.73555C11.1805 5.64085 11.3129 5.5723 11.4355 5.46801C11.6419 5.29237 11.7455 5.09043 11.9113 4.88182C11.9007 4.94075 11.8802 5.01544 11.8945 5.07099C11.8424 5.12442 11.4487 5.64229 11.4449 5.67521C11.6647 5.50009 11.6914 5.45474 11.8703 5.2295L11.9237 5.28192C11.8559 5.51574 11.9169 5.4483 11.726 5.62791C11.2277 6.09671 11.478 6.05085 11.7239 6.43351L11.6025 6.38134C11.559 6.30476 11.5459 6.26408 11.4698 6.22114L11.4391 6.23513C11.4701 6.32851 11.4866 6.32079 11.5688 6.39704C11.6586 6.52339 11.7257 6.6556 11.8941 6.66855C12.0421 6.76186 12.1964 7.03369 12.1116 7.21986C11.8271 7.47125 11.3507 6.53217 11.0848 6.34787L11.0044 6.41955C10.9972 6.33965 11.0168 6.232 11.0277 6.14992L10.9198 6.1643C10.8471 6.10355 10.8868 6.12284 10.8598 6.00259L10.7959 6.01521C10.6304 6.13614 10.5413 6.32044 10.3699 6.39449C10.4443 6.29656 10.6238 6.10996 10.7132 6.01307Z" fill="#202020"/>
<path d="M7.7001 4.58374C7.79785 4.62039 7.83712 4.66221 7.88768 4.75699C7.78553 5.09449 7.09846 5.23728 7.53555 5.67193C7.43184 5.6867 7.40387 5.66527 7.3171 5.61852C7.2775 5.67362 7.28731 5.70118 7.28052 5.7762C7.2254 5.71784 7.21884 5.70192 7.14496 5.68286C7.02661 5.70396 6.74096 6.04026 6.73662 6.14513C6.80065 6.14119 6.8239 6.14217 6.88768 6.14947C6.70169 6.2524 6.10543 6.80742 5.99589 6.76923L5.97754 6.71764C6.01088 6.49165 6.28572 6.18551 6.44383 6.021C6.32654 6.05671 6.20634 6.10467 6.0946 6.05361C6.05371 5.75653 6.79086 5.47455 6.82562 5.23786C6.80209 5.15098 6.7216 5.0797 6.65842 5.01229C6.71448 5.00237 6.77324 4.98457 6.82867 4.96963L6.92456 5.11272L6.96085 5.11764L6.97332 5.06012L7.06401 5.0453C7.23625 5.1295 7.59699 4.69704 7.7001 4.58374ZM6.48689 5.71408C6.6453 5.63609 6.78839 5.56358 6.89452 5.41807L6.88183 5.38412L6.85749 5.37567C6.72687 5.45141 6.54822 5.56794 6.45774 5.69073L6.47631 5.7133L6.48689 5.71408Z" fill="#202020"/>
<path d="M6.85776 5.37549L6.8821 5.38394L6.89479 5.41789C6.78866 5.5634 6.64557 5.63591 6.48716 5.7139L6.47658 5.71312L6.45801 5.69056C6.54849 5.56777 6.72714 5.45123 6.85776 5.37549Z" fill="#343334"/>
<path d="M8.97574 10.3217C9.04164 10.1086 9.04296 9.89147 8.74951 9.93516C8.91769 9.92504 9.01918 9.87272 9.13498 9.75959L9.14563 9.74902C9.22459 9.73451 9.1974 9.72736 9.25354 9.76495C9.25306 9.81684 9.2473 9.84831 9.27242 9.89357L9.34208 9.8634C9.52285 9.85508 9.82553 9.88685 10.0095 9.9132C9.81867 9.94029 9.35962 9.8895 9.22201 9.9917C9.3604 9.99657 9.51245 10.0053 9.64976 10.0051C9.79012 9.96772 9.92203 9.99001 10.0627 10.0219L10.0435 10.0646L10.2693 10.1057L10.3124 10.1948L10.2153 10.1953C10.1889 10.2877 10.2898 10.4872 10.3209 10.608C10.3727 10.7464 10.3849 10.8396 10.4088 10.9835C10.444 11.133 10.4735 11.7643 10.1721 11.6029C10.1301 11.47 10.2223 11.273 10.1851 11.1114C10.1088 10.7801 10.0042 10.4412 9.91718 10.11C9.66692 10.0956 9.42234 10.0678 9.17337 10.041C9.16153 10.4047 9.22807 10.742 9.26752 11.1016C9.31396 11.5252 9.31416 12.0934 9.77715 12.2915C9.6724 12.3771 9.6859 12.364 9.53068 12.3713C9.04185 11.9689 9.11661 11.3546 9.04253 10.788C9.02016 10.6169 8.95242 10.4988 8.97574 10.3217Z" fill="#202020"/>
<path d="M10.4082 10.9842L10.372 10.9711C10.3282 10.8357 10.2072 10.6428 10.2435 10.5305L10.3203 10.6088C10.3722 10.7472 10.3843 10.8404 10.4082 10.9842Z" fill="#282728"/>
<path d="M9.65039 10.0051C9.79075 9.96774 9.92266 9.99003 10.0633 10.0219L10.0442 10.0646C9.91163 10.0464 9.7822 10.029 9.65039 10.0051Z" fill="#565656"/>
<path d="M10.7965 6.01482L10.8605 6.0022C10.8875 6.12244 10.8478 6.10316 10.9205 6.16391L11.0284 6.14952C11.0175 6.2316 10.9978 6.33925 11.0051 6.41916C10.8554 6.58743 10.7128 6.76189 10.5664 6.93297C10.5525 6.94912 10.3811 6.9631 10.3714 6.96919C10.2174 7.06601 9.90907 7.37373 9.73542 7.38948L9.70508 7.35758C9.74286 7.27974 9.88401 7.01964 9.93603 6.95129C9.99345 6.84061 10.2021 6.58443 10.2875 6.47807L10.3706 6.3941C10.542 6.32004 10.6311 6.13574 10.7965 6.01482Z" fill="#282728"/>
<path d="M10.7957 6.01538C10.8473 6.20746 10.5723 6.51859 10.4486 6.66152C10.3848 6.56109 10.3619 6.63557 10.2866 6.47863L10.3697 6.39466C10.5411 6.32061 10.6302 6.1363 10.7957 6.01538Z" fill="#565656"/>
<path d="M10.2875 6.47803C10.3628 6.63497 10.3856 6.56049 10.4495 6.66092C10.1621 6.64946 10.2026 6.93595 9.99608 6.99307L9.93604 6.95125C9.99346 6.84057 10.2021 6.58439 10.2875 6.47803Z" fill="#494848"/>
<path d="M10.3788 6.76855L10.3985 6.79223C10.3696 6.89104 10.2903 6.99551 10.2055 7.05553C10.1223 6.9182 10.2704 6.83329 10.3788 6.76855Z" fill="#585758"/>
<path d="M6.34208 9.50806C6.65463 9.59438 6.97337 9.63128 7.27971 9.7097C7.88374 9.86432 8.35889 9.85584 8.97781 9.85114C9.03732 9.77971 9.07332 9.7232 9.16302 9.69561C9.24432 9.71661 9.21418 9.70006 9.27582 9.76371C9.28173 9.79518 9.28872 9.82366 9.30194 9.85288L9.3424 9.86384L9.27274 9.894C9.24763 9.84874 9.25338 9.81727 9.25386 9.76538C9.19773 9.72779 9.22491 9.73494 9.14596 9.74945L9.13531 9.76003C9.0195 9.87315 8.91801 9.92547 8.74984 9.93559C9.04328 9.8919 9.04197 10.109 8.97606 10.3222C8.97566 10.2357 8.97334 10.1908 8.96402 10.105C8.87283 10.007 8.16244 10.0538 7.98116 10.0186C7.29551 9.88539 6.65564 9.75435 5.96582 9.65096C6.18657 9.60957 6.24781 9.74049 6.34208 9.50806ZM8.33622 9.96891C8.16542 9.91727 8.0558 9.91601 7.87864 9.93708C8.0711 9.96949 8.13697 9.9782 8.33622 9.96891Z" fill="#202020"/>
<path d="M7.87891 9.93737C8.05607 9.9163 8.16569 9.91756 8.33649 9.9692C8.13724 9.97849 8.07136 9.96978 7.87891 9.93737Z" fill="#282728"/>
<path d="M10.2409 9.95972L10.5571 10.0254C10.8174 10.088 11.1087 10.1765 11.3591 10.231C11.4549 10.5144 11.3803 10.6815 11.3125 10.9759L11.3074 10.9563C11.289 10.8829 11.285 10.8673 11.2883 10.7927L11.2635 10.7745C11.2144 10.8343 11.2479 11.0682 11.1657 11.2256C11.0445 11.4574 10.9589 11.7403 10.8572 11.9837L10.8249 12.0075L10.7945 11.9977C10.8861 11.6819 11.0315 11.3781 11.1034 11.0629C11.147 10.872 11.1404 10.6399 11.168 10.4318C10.8618 10.3144 10.5681 10.291 10.3128 10.1947L10.2697 10.1057L10.0439 10.0645L10.0631 10.0218C10.1558 10.0175 10.1706 10.0185 10.2409 9.95972Z" fill="#282728"/>
<path d="M10.2409 9.95972L10.5571 10.0254C10.5833 10.059 10.6005 10.0876 10.6372 10.1087L10.6417 10.1616C10.5411 10.1864 10.3888 10.0464 10.2697 10.1057L10.0439 10.0645L10.0631 10.0218C10.1558 10.0175 10.1706 10.0185 10.2409 9.95972Z" fill="#3A3939"/>
<path d="M6.6579 5.01228C6.50229 4.76154 6.03739 4.28671 6.06145 4.05927C6.20358 3.99978 6.41976 4.17393 6.55285 4.25276C6.72201 4.6278 6.86752 4.72949 7.06349 5.04529L6.9728 5.06011C6.93668 4.99903 6.91939 4.9542 6.85849 4.92033L6.82815 4.96962C6.77272 4.98456 6.71396 5.00236 6.6579 5.01228ZM6.68201 4.63469C6.6424 4.54983 6.61974 4.49362 6.51936 4.46851C6.57284 4.56169 6.5818 4.59819 6.68201 4.63469Z" fill="#202020"/>
<path d="M6.51904 4.46826C6.61942 4.49338 6.64209 4.54958 6.68169 4.63444C6.58149 4.59794 6.57253 4.56145 6.51904 4.46826Z" fill="#282728"/>
<path d="M7.28027 5.77633C7.28706 5.70131 7.27725 5.67375 7.31685 5.61865C7.40362 5.6654 7.43159 5.68683 7.5353 5.67206C7.70249 5.84606 8.04592 6.19596 8.03791 6.4449C7.86118 6.60508 7.39244 5.89902 7.28027 5.77633Z" fill="#202020"/>
<path d="M9.77723 12.2921L9.79495 12.2984C10.1867 12.4359 10.4602 12.3827 10.7597 12.0962C10.7531 12.1678 10.7455 12.1894 10.7054 12.249C10.7284 12.2879 10.7302 12.2841 10.7724 12.3028C10.4229 12.6022 9.91906 12.58 9.53076 12.3719C9.68599 12.3646 9.67249 12.3776 9.77723 12.2921Z" fill="#202020"/>
<path d="M10.7949 11.9983L10.8252 12.0081L10.8575 11.9843C10.9592 11.7409 11.0448 11.458 11.166 11.2262C11.2482 11.0688 11.2147 10.8349 11.2638 10.7751L11.2886 10.7933C11.2853 10.868 11.2894 10.8835 11.3078 10.9569L11.3128 10.9765C11.3178 11.1781 10.9314 12.1716 10.773 12.3028C10.7308 12.2841 10.7291 12.2879 10.7061 12.249C10.7462 12.1893 10.7538 12.1678 10.7603 12.0962C10.766 12.0718 10.7854 12.0239 10.7949 11.9983Z" fill="#343334"/>
<path d="M5.96444 9.65075C5.85517 9.65749 5.77271 9.62818 5.74707 9.51733L5.78221 9.47253C5.97635 9.40345 6.13976 9.4637 6.3407 9.50784C6.24643 9.74027 6.18519 9.60935 5.96444 9.65075Z" fill="#202020"/>
<path d="M11.9111 4.88153C11.984 4.80059 12.0091 4.76757 12.1008 4.70728L12.1471 4.70849C12.2646 4.97457 12.0384 5.06737 11.9234 5.28163L11.8701 5.22921C11.9166 5.13597 11.9092 5.1777 11.8943 5.0707C11.88 5.01515 11.9005 4.94047 11.9111 4.88153Z" fill="#282728"/>
<path d="M8.1305 4.14868C8.10657 4.49419 8.02984 4.47105 7.8868 4.75701C7.83625 4.66224 7.79697 4.62041 7.69922 4.58377C7.84773 4.42443 7.97096 4.29649 8.1305 4.14868Z" fill="#202020"/>
<path d="M9.22168 9.99183C9.35929 9.88963 9.81834 9.94041 10.0091 9.91333C10.0731 9.92456 10.1823 9.94019 10.2402 9.9599C10.1699 10.0187 10.1551 10.0177 10.0624 10.022C9.9217 9.99013 9.78979 9.96785 9.64943 10.0052C9.51212 10.0054 9.36007 9.9967 9.22168 9.99183Z" fill="#353435"/>
<path d="M11.8944 5.07129C11.9093 5.17828 11.9167 5.13656 11.8702 5.2298C11.6913 5.45504 11.6646 5.50039 11.4448 5.67551C11.4486 5.64259 11.8423 5.12472 11.8944 5.07129Z" fill="#343334"/>
<path d="M11.6021 6.38086L11.7235 6.43303L11.8937 6.66806C11.7253 6.65512 11.6582 6.52291 11.5684 6.39656L11.6021 6.38086Z" fill="#282728"/>
<path d="M11.5691 6.39684C11.487 6.32059 11.4704 6.32832 11.4395 6.23493L11.4701 6.22095C11.5462 6.26388 11.5593 6.30457 11.6028 6.38114L11.5691 6.39684Z" fill="#494848"/>
<path d="M6.82764 4.96922L6.85797 4.91992C6.91888 4.95379 6.93617 4.99862 6.97229 5.0597L6.95982 5.11722L6.92353 5.1123L6.82764 4.96922Z" fill="#343334"/>
<path d="M4.49421 12.245C4.4303 12.1155 4.38562 12.0417 4.39302 11.8949L4.43275 11.8669C4.56771 11.956 4.99536 12.566 4.99016 12.738C5.0757 12.8707 5.10629 13.0216 5.26038 13.0757C5.36298 13.1117 5.54214 13.0518 5.62778 12.9918C5.64931 13.1229 5.62942 13.1675 5.74055 13.2412C6.03511 13.4363 7.09328 13.8216 7.38789 13.7667C8.1418 13.9168 8.92316 13.8425 9.63525 13.553L9.70718 13.6559C9.69499 13.6937 9.69267 13.7017 9.67381 13.7364L9.68148 13.7533L9.66619 13.7602C9.30879 13.9187 9.29104 13.8977 8.95562 13.9802L9.06852 14.0142C9.09891 14.0922 9.0476 14.3378 9.04565 14.4741C8.46099 15.1709 8.39665 14.3733 8.02254 14.358C7.65998 14.3431 7.24533 14.8337 6.82887 14.9413C6.12479 14.5673 6.45698 14.1614 5.83124 13.9483C5.73386 14.0317 5.63949 14.1184 5.54618 14.2062C5.273 14.4632 5.16542 14.8715 4.76334 14.5301C4.70976 14.4531 4.70978 14.4179 4.69643 14.3276C4.65395 14.0334 4.69136 13.7711 4.77448 13.4905C4.66907 13.2009 4.66185 13.1603 4.81582 12.8944C4.34875 12.5229 4.38456 12.4804 4.02832 12.0247C4.36485 12.0392 4.41773 12.5611 4.65698 12.5945C4.69689 12.5398 4.68427 12.5559 4.68644 12.4748C4.61251 12.3347 4.57818 12.352 4.49421 12.245Z" fill="#1C1C1C"/>
<path d="M4.69629 14.3272C4.69624 14.3285 4.73337 14.1805 4.7209 14.1972L4.75104 14.2564C4.81913 14.2389 4.79463 14.2516 4.84445 14.189L4.8204 14.1256C4.8685 14.0225 4.78728 13.9274 4.83057 13.8738C4.9156 13.9903 4.86007 14.0642 5.07474 14.0976C5.09047 14.1 5.10619 14.1024 5.12197 14.1046L5.13651 14.1433C5.07835 14.1775 5.05892 14.182 4.99387 14.2028L4.99281 14.2539C5.1094 14.3293 5.12454 14.2326 5.15887 14.3227L5.12535 14.3566C5.06127 14.3508 5.0075 14.3444 4.94392 14.3345L4.93138 14.3567C4.9751 14.3882 5.00601 14.4073 5.04206 14.4484C4.93438 14.511 4.89332 14.4516 4.7632 14.5297C4.70962 14.4527 4.70964 14.4175 4.69629 14.3272Z" fill="#343334"/>
<path d="M6.87207 13.9428C6.99964 13.9352 7.11963 13.9283 7.21511 14.0205C7.06145 14.0516 6.99502 14.0241 6.87207 13.9428Z" fill="#585758"/>
<path d="M7.76172 14.1012C7.87374 14.0831 7.91743 14.0738 8.02165 14.1161C7.90514 14.1633 7.87071 14.1473 7.76172 14.1012Z" fill="#585758"/>
<path d="M4.02808 12.0242C3.98911 11.9818 3.92159 11.8997 3.88931 11.8512C3.00312 10.5187 2.83663 8.90385 3.13833 7.35895C3.20928 6.99565 3.14808 6.73605 3.30018 6.38477C3.3293 6.47194 3.13429 7.66117 3.20613 8.02028C3.14368 9.12657 3.13639 9.83127 3.59213 10.857C3.83815 11.4107 3.90206 11.5984 4.32953 12.0732C4.38279 12.1318 4.43761 12.1889 4.49397 12.2445C4.57794 12.3514 4.61227 12.3341 4.6862 12.4742C4.68403 12.5553 4.69665 12.5392 4.65674 12.5939C4.41749 12.5606 4.36461 12.0386 4.02808 12.0242Z" fill="#494848"/>
<path d="M3.51123 5.7711C4.11205 4.13968 4.9492 2.7637 6.33507 1.67945C6.56393 1.5004 6.46592 1.34929 6.82093 1.21436L6.84077 1.31466C6.76449 1.35658 6.70101 1.39086 6.62865 1.43975L6.6239 1.48334C6.67521 1.51693 6.68922 1.51865 6.74884 1.53664C6.51893 1.73541 6.16286 2.02142 5.95781 2.21385C5.28566 2.8421 4.72666 3.5813 4.30527 4.39914C4.15834 4.68958 4.01856 4.9836 3.88602 5.28087C3.83923 5.38615 3.75692 5.61078 3.71091 5.69195C3.56454 5.6781 3.62562 5.69677 3.51123 5.7711Z" fill="#494848"/>
<path d="M13.0157 3.61597C13.1273 3.80559 13.2452 3.87155 13.3307 4.06874C13.3544 4.41642 13.562 4.77561 13.6011 5.13149C13.6694 5.75368 13.6484 6.41494 13.632 7.0419C13.6245 7.32907 13.5249 7.82057 13.4731 8.11078C13.4398 8.04705 13.4271 8.0022 13.405 7.93475L13.3743 7.92113C13.4496 7.58594 13.4251 7.5687 13.4082 7.22251C13.4521 6.94237 13.4204 6.68942 13.4351 6.41718C13.4837 5.52009 13.4024 4.52372 12.9028 3.7432C12.928 3.72043 12.99 3.64535 13.0157 3.61597ZM13.42 4.69179C13.3974 4.57468 13.3184 4.29398 13.2301 4.21609C13.2593 4.36317 13.2754 4.63078 13.42 4.69179Z" fill="#282728"/>
<path d="M13.23 4.21606C13.3183 4.29395 13.3973 4.57465 13.4199 4.69176C13.2753 4.63075 13.2592 4.36314 13.23 4.21606Z" fill="#3D3C3D"/>
<path d="M12.1141 11.3C12.1721 11.2564 12.201 11.2319 12.2529 11.1812C12.3031 11.2628 12.272 11.2397 12.372 11.2638C12.2938 11.4416 12.1514 11.6138 12.043 11.782C11.5028 12.6202 10.7611 13.2884 9.85002 13.6944C9.80956 13.7124 9.7239 13.7421 9.68149 13.7535L9.67382 13.7366C9.69268 13.7019 9.695 13.6939 9.70719 13.6561L9.63525 13.5532C9.70444 13.5088 9.91744 13.4306 10.0164 13.377C10.9448 12.8744 11.5735 12.2038 12.1141 11.3Z" fill="#202020"/>
<path d="M6.82031 1.21489C6.90459 1.20787 6.9789 1.21024 7.06247 1.18859C7.23542 1.14379 7.58343 0.93243 7.75337 1.0218L7.74396 1.09563C7.68538 1.1792 7.59083 1.20646 7.49501 1.24732C7.96509 1.30565 9.54027 1.27072 9.7953 1.45053C9.84393 1.50659 9.90302 1.55669 9.90608 1.62501L9.89752 1.63521C9.80994 1.60727 9.70483 1.57123 9.59092 1.54669C9.1338 1.44816 8.61909 1.4977 8.14836 1.47635C8.10707 1.50283 8.07347 1.52438 8.04752 1.54101C7.91241 1.41065 7.62705 1.42145 7.38751 1.37781C7.28696 1.35431 7.25402 1.35555 7.15202 1.35457C7.01105 1.30447 6.98385 1.27264 6.84015 1.31519L6.82031 1.21489Z" fill="#494848"/>
<path d="M13.4074 7.22266C13.4242 7.56885 13.4488 7.58609 13.3735 7.92127L13.4042 7.9349C13.4263 8.00234 13.439 8.04719 13.4723 8.11092L13.4612 8.14242C13.437 8.47183 12.9992 9.80691 12.8844 10.1789C12.8371 10.3321 12.6243 10.7488 12.55 10.9336C12.4349 10.7453 12.7959 10.2792 12.7853 10.0271C12.7835 9.98397 12.7877 9.9131 12.7889 9.86703C12.8498 9.42057 13.1256 8.79151 13.2162 8.32667C13.2889 7.95403 13.3496 7.59684 13.4074 7.22266Z" fill="#282728"/>
<path d="M13.3733 7.9209L13.404 7.93453C13.4261 8.00197 13.4388 8.04682 13.4721 8.11055L13.461 8.14205L13.4327 8.16027C13.4069 8.25025 13.383 8.35856 13.3099 8.41151L13.271 8.40033C13.3327 8.27754 13.3524 8.06328 13.3733 7.9209Z" fill="#373737"/>
<path d="M3.51017 5.77161C3.62455 5.69728 3.56347 5.6786 3.70984 5.69246C3.62655 5.93514 3.54295 6.17784 3.46627 6.42272C3.30458 6.93918 3.29643 7.48948 3.20594 8.02083C3.13411 7.66172 3.32912 6.47249 3.29999 6.38532C3.32876 6.23716 3.45194 5.92648 3.51017 5.77161Z" fill="#585758"/>
<path d="M11.2266 1.88037C11.4706 1.95347 11.9753 2.33338 12.1735 2.52447C12.2544 2.60243 12.3695 2.76056 12.4485 2.84842L12.332 2.97871C11.9532 2.53148 11.6453 2.25768 11.106 1.99317L11.1944 1.96434L11.2266 1.88037Z" fill="#343334"/>
<path d="M5.62842 12.9912C5.88976 13.0774 6.12194 13.2497 6.35721 13.3702C6.62178 13.5058 7.10271 13.6941 7.38853 13.7661C7.09393 13.821 6.03575 13.4358 5.74119 13.2406C5.63006 13.167 5.64995 13.1224 5.62842 12.9912Z" fill="#565656"/>
<path d="M12.1152 11.2995C12.1561 11.1804 12.3355 10.8726 12.4028 10.7425C12.5478 10.4578 12.6772 10.1655 12.7904 9.8667C12.7891 9.91276 12.785 9.98364 12.7868 10.0267C12.7974 10.2789 12.4363 10.745 12.5515 10.9332C12.4953 11.0371 12.4246 11.1594 12.3731 11.2633C12.2731 11.2392 12.3043 11.2622 12.254 11.1806C12.2022 11.2313 12.1733 11.2559 12.1152 11.2995Z" fill="#1C1C1C"/>
<path d="M12.6121 3.00024C12.6809 3.08263 12.7474 3.16016 12.8094 3.24797C12.8593 3.39151 12.9318 3.4903 13.0144 3.61625C12.9887 3.64563 12.9267 3.72072 12.9015 3.74348C12.752 3.52354 12.626 3.34116 12.4604 3.13396C12.5216 3.0612 12.5315 3.04984 12.6121 3.00024Z" fill="#282728"/>
<path d="M4.99023 12.7377C5.31089 12.6795 5.39138 12.7989 5.62786 12.9914C5.54222 13.0514 5.36306 13.1114 5.26046 13.0753C5.10637 13.0213 5.07577 12.8704 4.99023 12.7377Z" fill="#202020"/>
<path d="M12.8105 3.24756C13.0737 3.32426 13.4081 3.87081 13.468 4.11899L13.4415 4.16286L13.4 4.1705L13.3648 4.06611L13.3305 4.06861C13.245 3.87141 13.1272 3.80546 13.0155 3.61583C12.933 3.48989 12.8605 3.3911 12.8105 3.24756Z" fill="#282728"/>
<path d="M10.1898 1.53516C10.3754 1.55737 10.5144 1.56421 10.6831 1.65333C10.6603 1.73392 10.671 1.76072 10.7246 1.83546C10.4378 1.69596 10.3162 1.68324 10.0049 1.6685C10.0778 1.60497 10.1088 1.58526 10.1898 1.53516Z" fill="#343334"/>
<path d="M10.6837 1.65356C10.8833 1.72797 11.0336 1.79082 11.2267 1.88072L11.1945 1.9647L11.1061 1.99352C10.9805 1.93769 10.8535 1.88506 10.7252 1.8357C10.6715 1.76096 10.6608 1.73416 10.6837 1.65356Z" fill="#3D3C3D"/>
<path d="M6.83942 1.31452C6.98312 1.27197 7.01033 1.3038 7.15129 1.3539C6.97115 1.41778 6.91593 1.44108 6.7475 1.53651C6.68788 1.51851 6.67387 1.5168 6.62256 1.4832L6.62731 1.43961C6.69967 1.39072 6.76315 1.35645 6.83942 1.31452Z" fill="#282728"/>
<path d="M9.79443 1.4502C9.98225 1.46726 10.0163 1.46261 10.1887 1.53513C10.1077 1.58523 10.0767 1.60494 10.0038 1.66847L9.89666 1.63488L9.90521 1.62468C9.90216 1.55635 9.84307 1.50625 9.79443 1.4502Z" fill="#282728"/>
<path d="M12.448 2.84863L12.6133 2.99992C12.5326 3.04952 12.5227 3.06087 12.4616 3.13364C12.3984 3.0795 12.3788 3.04571 12.3315 2.97892L12.448 2.84863Z" fill="#202020"/>
</svg>
